<mxfile host="app.diagrams.net" modified="2021-12-23T06:35:00.579Z" agent="5.0 (Windows)" etag="LIKg1lyYyNoX2FH4XMHK" version="16.0.3" type="github">
  <diagram id="ACnTC_ncGD5F5r27zh_p" name="Page-1">
    <mxGraphModel dx="1492" dy="756" grid="1" gridSize="10" guides="1" tooltips="1" connect="1" arrows="1" fold="1" page="1" pageScale="1" pageWidth="1169" pageHeight="827" math="0" shadow="0">
      <root>
        <mxCell id="0" />
        <mxCell id="1" parent="0" />
        <mxCell id="IWzeXCpRZQWRaxx0bdLv-1" value="" style="rounded=1;whiteSpace=wrap;html=1;fillColor=#d5e8d4;strokeColor=#82b366;" vertex="1" parent="1">
          <mxGeometry x="440" y="200" width="350" height="380" as="geometry" />
        </mxCell>
        <mxCell id="IWzeXCpRZQWRaxx0bdLv-2" value="Aviagregator" style="text;html=1;align=center;verticalAlign=middle;resizable=0;points=[];autosize=1;strokeColor=none;fillColor=none;fontSize=16;" vertex="1" parent="1">
          <mxGeometry x="555" y="226" width="110" height="20" as="geometry" />
        </mxCell>
        <mxCell id="IWzeXCpRZQWRaxx0bdLv-3" value="" style="rounded=1;whiteSpace=wrap;html=1;" vertex="1" parent="1">
          <mxGeometry x="518" y="260" width="200" height="70" as="geometry" />
        </mxCell>
        <mxCell id="IWzeXCpRZQWRaxx0bdLv-7" value="" style="shape=cylinder3;whiteSpace=wrap;html=1;boundedLbl=1;backgroundOutline=1;size=15;" vertex="1" parent="1">
          <mxGeometry x="663" y="270" width="45" height="50" as="geometry" />
        </mxCell>
        <mxCell id="IWzeXCpRZQWRaxx0bdLv-10" value="Авиакомпания 1" style="rounded=0;whiteSpace=wrap;html=1;" vertex="1" parent="1">
          <mxGeometry x="1020" y="246" width="120" height="60" as="geometry" />
        </mxCell>
        <mxCell id="IWzeXCpRZQWRaxx0bdLv-11" value="Авиакомпания 2" style="rounded=0;whiteSpace=wrap;html=1;" vertex="1" parent="1">
          <mxGeometry x="1020" y="410" width="120" height="60" as="geometry" />
        </mxCell>
        <mxCell id="IWzeXCpRZQWRaxx0bdLv-14" value="Партнерские компании" style="rounded=0;whiteSpace=wrap;html=1;" vertex="1" parent="1">
          <mxGeometry x="140" y="365" width="120" height="60" as="geometry" />
        </mxCell>
        <mxCell id="IWzeXCpRZQWRaxx0bdLv-18" value="Сторонная система проведения платежей" style="rounded=1;whiteSpace=wrap;html=1;" vertex="1" parent="1">
          <mxGeometry x="477.75" y="660" width="272.5" height="130" as="geometry" />
        </mxCell>
        <mxCell id="IWzeXCpRZQWRaxx0bdLv-20" value="" style="rounded=1;whiteSpace=wrap;html=1;fillColor=#dae8fc;strokeColor=#6c8ebf;" vertex="1" parent="1">
          <mxGeometry x="519" y="360" width="200" height="70" as="geometry" />
        </mxCell>
        <mxCell id="IWzeXCpRZQWRaxx0bdLv-21" value="" style="shape=cylinder3;whiteSpace=wrap;html=1;boundedLbl=1;backgroundOutline=1;size=15;fillColor=#dae8fc;strokeColor=#6c8ebf;" vertex="1" parent="1">
          <mxGeometry x="664" y="370" width="45" height="50" as="geometry" />
        </mxCell>
        <mxCell id="IWzeXCpRZQWRaxx0bdLv-23" value="&lt;div&gt;&lt;font style=&quot;font-size: 14px&quot;&gt;Сервис поиска&lt;/font&gt;&lt;/div&gt;&lt;div style=&quot;font-size: 14px&quot;&gt; билетов&lt;/div&gt;" style="text;html=1;align=center;verticalAlign=middle;resizable=0;points=[];autosize=1;strokeColor=none;fillColor=none;fontSize=16;" vertex="1" parent="1">
          <mxGeometry x="545" y="375" width="110" height="40" as="geometry" />
        </mxCell>
        <mxCell id="IWzeXCpRZQWRaxx0bdLv-24" value="&lt;div&gt;&lt;font style=&quot;font-size: 14px&quot;&gt;Сервис&lt;/font&gt;&lt;/div&gt;&lt;div style=&quot;font-size: 14px&quot;&gt;авторизации&lt;br&gt;&lt;/div&gt;" style="text;html=1;align=center;verticalAlign=middle;resizable=0;points=[];autosize=1;strokeColor=none;fillColor=none;fontSize=16;" vertex="1" parent="1">
          <mxGeometry x="545" y="275" width="100" height="40" as="geometry" />
        </mxCell>
        <mxCell id="IWzeXCpRZQWRaxx0bdLv-25" value="" style="rounded=1;whiteSpace=wrap;html=1;fillColor=#e1d5e7;strokeColor=#9673a6;" vertex="1" parent="1">
          <mxGeometry x="519" y="500" width="200" height="70" as="geometry" />
        </mxCell>
        <mxCell id="IWzeXCpRZQWRaxx0bdLv-26" value="" style="shape=cylinder3;whiteSpace=wrap;html=1;boundedLbl=1;backgroundOutline=1;size=15;fillColor=#e1d5e7;strokeColor=#9673a6;" vertex="1" parent="1">
          <mxGeometry x="663" y="510" width="45" height="50" as="geometry" />
        </mxCell>
        <mxCell id="IWzeXCpRZQWRaxx0bdLv-27" value="&lt;div&gt;&lt;font style=&quot;font-size: 14px&quot;&gt;Сервис&lt;/font&gt;&lt;/div&gt;&lt;div style=&quot;font-size: 14px&quot;&gt;оплаты&lt;br&gt;&lt;/div&gt;" style="text;html=1;align=center;verticalAlign=middle;resizable=0;points=[];autosize=1;strokeColor=none;fillColor=none;fontSize=16;" vertex="1" parent="1">
          <mxGeometry x="580" y="520" width="60" height="40" as="geometry" />
        </mxCell>
        <mxCell id="IWzeXCpRZQWRaxx0bdLv-28" value="" style="endArrow=classic;html=1;rounded=0;fontSize=14;startArrow=classic;startFill=1;exitX=0.5;exitY=0;exitDx=0;exitDy=0;" edge="1" parent="1" source="IWzeXCpRZQWRaxx0bdLv-14">
          <mxGeometry width="50" height="50" relative="1" as="geometry">
            <mxPoint x="210" y="330" as="sourcePoint" />
            <mxPoint x="520" y="295" as="targetPoint" />
            <Array as="points">
              <mxPoint x="200" y="295" />
            </Array>
          </mxGeometry>
        </mxCell>
        <mxCell id="IWzeXCpRZQWRaxx0bdLv-33" value="Авторизация в&amp;nbsp; REST API" style="text;html=1;strokeColor=none;fillColor=none;align=center;verticalAlign=middle;whiteSpace=wrap;rounded=0;fontSize=11;" vertex="1" parent="1">
          <mxGeometry x="320" y="236" width="60" height="30" as="geometry" />
        </mxCell>
        <mxCell id="IWzeXCpRZQWRaxx0bdLv-37" value="" style="endArrow=classic;html=1;rounded=0;fontSize=14;entryX=0;entryY=0.5;entryDx=0;entryDy=0;exitX=1;exitY=0.5;exitDx=0;exitDy=0;startArrow=classic;startFill=1;" edge="1" parent="1" source="IWzeXCpRZQWRaxx0bdLv-14" target="IWzeXCpRZQWRaxx0bdLv-20">
          <mxGeometry width="50" height="50" relative="1" as="geometry">
            <mxPoint x="270" y="370" as="sourcePoint" />
            <mxPoint x="320" y="320" as="targetPoint" />
            <Array as="points" />
          </mxGeometry>
        </mxCell>
        <mxCell id="IWzeXCpRZQWRaxx0bdLv-43" value="&lt;div&gt;Запрос и получение &lt;br&gt;&lt;/div&gt;&lt;div&gt;информации о билетах&lt;/div&gt;" style="edgeLabel;html=1;align=center;verticalAlign=middle;resizable=0;points=[];fontSize=11;" vertex="1" connectable="0" parent="IWzeXCpRZQWRaxx0bdLv-37">
          <mxGeometry x="-0.4255" relative="1" as="geometry">
            <mxPoint x="16" y="35" as="offset" />
          </mxGeometry>
        </mxCell>
        <mxCell id="IWzeXCpRZQWRaxx0bdLv-53" value="&lt;div&gt;Запрос и получение информации &lt;br&gt;&lt;/div&gt;&lt;div&gt;о билетах, рейсах&lt;/div&gt;REST API" style="text;html=1;align=center;verticalAlign=middle;resizable=0;points=[];autosize=1;strokeColor=none;fillColor=none;fontSize=11;" vertex="1" parent="1">
          <mxGeometry x="835" y="320" width="190" height="40" as="geometry" />
        </mxCell>
        <mxCell id="IWzeXCpRZQWRaxx0bdLv-54" value="&lt;div&gt;Запрос и получение информации &lt;br&gt;&lt;/div&gt;&lt;div&gt;о билетах, рейсах&lt;/div&gt;SOAP " style="text;html=1;align=center;verticalAlign=middle;resizable=0;points=[];autosize=1;strokeColor=none;fillColor=none;fontSize=11;" vertex="1" parent="1">
          <mxGeometry x="835" y="410" width="190" height="40" as="geometry" />
        </mxCell>
        <mxCell id="IWzeXCpRZQWRaxx0bdLv-56" value="" style="endArrow=classic;html=1;rounded=0;fontSize=11;strokeColor=#000000;startArrow=classic;startFill=1;" edge="1" parent="1">
          <mxGeometry width="50" height="50" relative="1" as="geometry">
            <mxPoint x="610" y="660" as="sourcePoint" />
            <mxPoint x="610" y="570" as="targetPoint" />
          </mxGeometry>
        </mxCell>
        <mxCell id="IWzeXCpRZQWRaxx0bdLv-57" value="" style="endArrow=classic;startArrow=classic;html=1;rounded=0;fontSize=11;strokeColor=#000000;" edge="1" parent="1" target="IWzeXCpRZQWRaxx0bdLv-1">
          <mxGeometry width="50" height="50" relative="1" as="geometry">
            <mxPoint x="430" y="550" as="sourcePoint" />
            <mxPoint x="480" y="500" as="targetPoint" />
          </mxGeometry>
        </mxCell>
        <mxCell id="IWzeXCpRZQWRaxx0bdLv-59" value="Передача реквизитов для оплаты&lt;br&gt;получение подтверждения оплаты" style="text;html=1;align=center;verticalAlign=middle;resizable=0;points=[];autosize=1;strokeColor=none;fillColor=none;fontSize=11;" vertex="1" parent="1">
          <mxGeometry x="395" y="610" width="190" height="30" as="geometry" />
        </mxCell>
        <mxCell id="IWzeXCpRZQWRaxx0bdLv-61" value="Получегние информации &lt;br&gt;&lt;div&gt;о купленномбилете&lt;/div&gt;&lt;div&gt;SOAP &lt;br&gt;&lt;/div&gt;" style="text;html=1;align=center;verticalAlign=middle;resizable=0;points=[];autosize=1;strokeColor=none;fillColor=none;fontSize=11;" vertex="1" parent="1">
          <mxGeometry x="860" y="540" width="140" height="40" as="geometry" />
        </mxCell>
        <mxCell id="IWzeXCpRZQWRaxx0bdLv-64" value="Получегние информации &lt;br&gt;&lt;div&gt;о купленномбилете&lt;/div&gt;&lt;div&gt;REST API&lt;br&gt;&lt;/div&gt;" style="text;html=1;align=center;verticalAlign=middle;resizable=0;points=[];autosize=1;strokeColor=none;fillColor=none;fontSize=11;" vertex="1" parent="1">
          <mxGeometry x="850" y="226" width="140" height="40" as="geometry" />
        </mxCell>
        <mxCell id="IWzeXCpRZQWRaxx0bdLv-67" value="" style="endArrow=classic;html=1;rounded=0;fontSize=11;strokeColor=#9673a6;entryX=0.527;entryY=1.135;entryDx=0;entryDy=0;entryPerimeter=0;fillColor=#e1d5e7;" edge="1" parent="1" target="IWzeXCpRZQWRaxx0bdLv-11">
          <mxGeometry width="50" height="50" relative="1" as="geometry">
            <mxPoint x="720" y="515" as="sourcePoint" />
            <mxPoint x="1090" y="520" as="targetPoint" />
            <Array as="points">
              <mxPoint x="1083" y="515" />
            </Array>
          </mxGeometry>
        </mxCell>
        <mxCell id="IWzeXCpRZQWRaxx0bdLv-68" value="" style="endArrow=classic;startArrow=classic;html=1;rounded=0;fontSize=11;strokeColor=#6c8ebf;entryX=0.5;entryY=0;entryDx=0;entryDy=0;fillColor=#dae8fc;" edge="1" parent="1" target="IWzeXCpRZQWRaxx0bdLv-11">
          <mxGeometry width="50" height="50" relative="1" as="geometry">
            <mxPoint x="720" y="390" as="sourcePoint" />
            <mxPoint x="610" y="430" as="targetPoint" />
            <Array as="points">
              <mxPoint x="1080" y="390" />
            </Array>
          </mxGeometry>
        </mxCell>
        <mxCell id="IWzeXCpRZQWRaxx0bdLv-70" value="" style="endArrow=classic;startArrow=classic;html=1;rounded=0;fontSize=11;strokeColor=#6c8ebf;fillColor=#dae8fc;" edge="1" parent="1">
          <mxGeometry width="50" height="50" relative="1" as="geometry">
            <mxPoint x="718" y="380" as="sourcePoint" />
            <mxPoint x="1078" y="310" as="targetPoint" />
            <Array as="points">
              <mxPoint x="718" y="380" />
              <mxPoint x="1078" y="380" />
            </Array>
          </mxGeometry>
        </mxCell>
        <mxCell id="IWzeXCpRZQWRaxx0bdLv-71" value="" style="endArrow=classic;startArrow=classic;html=1;rounded=0;fontSize=11;strokeColor=#9673a6;exitX=1.046;exitY=0.427;exitDx=0;exitDy=0;exitPerimeter=0;entryX=0;entryY=0.5;entryDx=0;entryDy=0;fillColor=#e1d5e7;" edge="1" parent="1" source="IWzeXCpRZQWRaxx0bdLv-25" target="IWzeXCpRZQWRaxx0bdLv-10">
          <mxGeometry width="50" height="50" relative="1" as="geometry">
            <mxPoint x="560" y="480" as="sourcePoint" />
            <mxPoint x="610" y="430" as="targetPoint" />
            <Array as="points">
              <mxPoint x="840" y="530" />
              <mxPoint x="840" y="276" />
            </Array>
          </mxGeometry>
        </mxCell>
        <mxCell id="IWzeXCpRZQWRaxx0bdLv-72" value="" style="rounded=1;whiteSpace=wrap;html=1;labelBackgroundColor=#C3ABD0;fontSize=11;" vertex="1" parent="1">
          <mxGeometry x="442.5" y="30" width="120" height="60" as="geometry" />
        </mxCell>
        <mxCell id="IWzeXCpRZQWRaxx0bdLv-73" value="Соцсеть 1" style="text;html=1;align=center;verticalAlign=middle;resizable=0;points=[];autosize=1;strokeColor=none;fillColor=none;fontSize=15;" vertex="1" parent="1">
          <mxGeometry x="457.5" y="50" width="90" height="20" as="geometry" />
        </mxCell>
        <mxCell id="IWzeXCpRZQWRaxx0bdLv-74" value="" style="rounded=1;whiteSpace=wrap;html=1;labelBackgroundColor=#C3ABD0;fontSize=11;" vertex="1" parent="1">
          <mxGeometry x="657.5" y="30" width="120" height="60" as="geometry" />
        </mxCell>
        <mxCell id="IWzeXCpRZQWRaxx0bdLv-75" value="Соцсеть 2" style="text;html=1;align=center;verticalAlign=middle;resizable=0;points=[];autosize=1;strokeColor=none;fillColor=none;fontSize=15;" vertex="1" parent="1">
          <mxGeometry x="672.5" y="50" width="90" height="20" as="geometry" />
        </mxCell>
        <mxCell id="IWzeXCpRZQWRaxx0bdLv-76" value="" style="endArrow=classic;startArrow=classic;html=1;rounded=0;fontSize=15;strokeColor=#000000;entryX=0.25;entryY=0;entryDx=0;entryDy=0;exitX=0.396;exitY=1;exitDx=0;exitDy=0;exitPerimeter=0;" edge="1" parent="1" source="IWzeXCpRZQWRaxx0bdLv-72" target="IWzeXCpRZQWRaxx0bdLv-3">
          <mxGeometry width="50" height="50" relative="1" as="geometry">
            <mxPoint x="560" y="410" as="sourcePoint" />
            <mxPoint x="610" y="360" as="targetPoint" />
          </mxGeometry>
        </mxCell>
        <mxCell id="IWzeXCpRZQWRaxx0bdLv-77" value="" style="endArrow=classic;startArrow=classic;html=1;rounded=0;fontSize=15;strokeColor=#000000;entryX=0.691;entryY=0.024;entryDx=0;entryDy=0;entryPerimeter=0;exitX=0.5;exitY=1;exitDx=0;exitDy=0;" edge="1" parent="1" source="IWzeXCpRZQWRaxx0bdLv-74" target="IWzeXCpRZQWRaxx0bdLv-3">
          <mxGeometry width="50" height="50" relative="1" as="geometry">
            <mxPoint x="560" y="410" as="sourcePoint" />
            <mxPoint x="610" y="360" as="targetPoint" />
          </mxGeometry>
        </mxCell>
        <mxCell id="IWzeXCpRZQWRaxx0bdLv-78" value="Авторизация через открытое REST API" style="text;html=1;strokeColor=none;fillColor=none;align=center;verticalAlign=middle;whiteSpace=wrap;rounded=0;fontSize=11;" vertex="1" parent="1">
          <mxGeometry x="390" y="120" width="90" height="30" as="geometry" />
        </mxCell>
        <mxCell id="IWzeXCpRZQWRaxx0bdLv-79" value="Авторизация через открытое REST API" style="text;html=1;strokeColor=none;fillColor=none;align=center;verticalAlign=middle;whiteSpace=wrap;rounded=0;fontSize=11;" vertex="1" parent="1">
          <mxGeometry x="740" y="120" width="90" height="30" as="geometry" />
        </mxCell>
        <mxCell id="IWzeXCpRZQWRaxx0bdLv-80" value="" style="rounded=0;whiteSpace=wrap;html=1;labelBackgroundColor=none;fontSize=15;fillColor=#dae8fc;strokeColor=#6c8ebf;" vertex="1" parent="1">
          <mxGeometry x="528" y="430" width="180" height="50" as="geometry" />
        </mxCell>
        <mxCell id="IWzeXCpRZQWRaxx0bdLv-81" value="&lt;div style=&quot;font-size: 12px;&quot;&gt;Очередь.&lt;/div&gt;&lt;div style=&quot;font-size: 12px;&quot;&gt;обновление данных &lt;br style=&quot;font-size: 12px;&quot;&gt;&lt;/div&gt;&lt;div style=&quot;font-size: 12px;&quot;&gt;о направлениях &lt;br style=&quot;font-size: 12px;&quot;&gt;&lt;/div&gt;" style="text;html=1;align=center;verticalAlign=middle;resizable=0;points=[];autosize=1;strokeColor=none;fillColor=none;fontSize=12;" vertex="1" parent="1">
          <mxGeometry x="555" y="430" width="130" height="50" as="geometry" />
        </mxCell>
        <mxCell id="IWzeXCpRZQWRaxx0bdLv-82" value="" style="endArrow=classic;startArrow=classic;html=1;rounded=0;fontSize=15;strokeColor=#6c8ebf;entryX=0;entryY=1;entryDx=0;entryDy=0;exitX=1;exitY=0.5;exitDx=0;exitDy=0;fillColor=#dae8fc;" edge="1" parent="1" source="IWzeXCpRZQWRaxx0bdLv-80" target="IWzeXCpRZQWRaxx0bdLv-10">
          <mxGeometry width="50" height="50" relative="1" as="geometry">
            <mxPoint x="710" y="500" as="sourcePoint" />
            <mxPoint x="760" y="450" as="targetPoint" />
            <Array as="points">
              <mxPoint x="800" y="453" />
              <mxPoint x="800" y="306" />
            </Array>
          </mxGeometry>
        </mxCell>
        <mxCell id="IWzeXCpRZQWRaxx0bdLv-84" value="" style="endArrow=classic;startArrow=classic;html=1;rounded=0;fontSize=12;strokeColor=#6c8ebf;exitX=1;exitY=0.5;exitDx=0;exitDy=0;entryX=0.96;entryY=1.144;entryDx=0;entryDy=0;entryPerimeter=0;fillColor=#dae8fc;" edge="1" parent="1" source="IWzeXCpRZQWRaxx0bdLv-80" target="IWzeXCpRZQWRaxx0bdLv-54">
          <mxGeometry width="50" height="50" relative="1" as="geometry">
            <mxPoint x="560" y="380" as="sourcePoint" />
            <mxPoint x="610" y="330" as="targetPoint" />
          </mxGeometry>
        </mxCell>
      </root>
    </mxGraphModel>
  </diagram>
</mxfile>
